<svg width="324" height="19" viewBox="0 0 324 19" fill="none" xmlns="http://www.w3.org/2000/svg">
<path d="M3.848 19C3.208 19 2.616 18.84 2.072 18.52C1.528 18.2 1.096 17.768 0.776 17.224C0.456 16.68 0.296 16.088 0.296 15.448V13.84H4.016V15.256H13.808V12.232H3.848C3.208 12.232 2.616 12.072 2.072 11.752C1.528 11.432 1.096 11.008 0.776 10.48C0.456 9.936 0.296 9.336 0.296 8.68V5.272C0.296 4.616 0.456 4.024 0.776 3.496C1.096 2.952 1.528 2.52 2.072 2.2C2.616 1.88 3.208 1.72 3.848 1.72H14.024C14.664 1.72 15.248 1.88 15.776 2.2C16.32 2.52 16.752 2.952 17.072 3.496C17.408 4.024 17.576 4.616 17.576 5.272V6.88H13.808V5.464H4.016V8.488H14.024C14.664 8.488 15.248 8.648 15.776 8.968C16.32 9.288 16.752 9.72 17.072 10.264C17.408 10.792 17.576 11.384 17.576 12.04V15.448C17.576 16.088 17.408 16.68 17.072 17.224C16.752 17.768 16.32 18.2 15.776 18.52C15.248 18.84 14.664 19 14.024 19H3.848ZM20.219 19V1.72H24.059L29.915 8.704L35.747 1.72H39.611V19H35.867V7.408L29.915 14.512L23.939 7.432V19H20.219ZM42.5326 19V5.272C42.5326 4.616 42.6926 4.024 43.0126 3.496C43.3326 2.952 43.7646 2.52 44.3086 2.2C44.8526 1.88 45.4446 1.72 46.0846 1.72H56.2366C56.8926 1.72 57.4846 1.88 58.0126 2.2C58.5566 2.52 58.9886 2.952 59.3086 3.496C59.6446 4.024 59.8126 4.616 59.8126 5.272V19H56.0446V13.432H46.2526V19H42.5326ZM46.2526 9.688H56.0446V5.464H46.2526V9.688ZM75.9631 19L70.9471 13.024H75.8191L79.8031 17.728V19H75.9631ZM62.5471 19V1.744H76.2511C76.9071 1.744 77.4991 1.904 78.0271 2.224C78.5711 2.544 79.0031 2.976 79.3231 3.52C79.6591 4.064 79.8271 4.656 79.8271 5.296V9.76C79.8271 10.4 79.6591 10.992 79.3231 11.536C79.0031 12.08 78.5711 12.512 78.0271 12.832C77.4991 13.152 76.9071 13.312 76.2511 13.312L66.2671 13.336V19H62.5471ZM66.2671 9.568H76.0591V5.464H66.2671V9.568ZM88.2558 19V5.464H81.4878V1.72H98.7678V5.464H91.9998V19H88.2558ZM108.345 19V5.272C108.345 4.616 108.505 4.024 108.825 3.496C109.145 2.952 109.577 2.52 110.121 2.2C110.665 1.88 111.257 1.72 111.897 1.72H122.049C122.705 1.72 123.297 1.88 123.825 2.2C124.369 2.52 124.801 2.952 125.121 3.496C125.457 4.024 125.625 4.616 125.625 5.272V19H121.857V13.432H112.065V19H108.345ZM112.065 9.688H121.857V5.464H112.065V9.688ZM128.408 19V1.72H144.368V5.464H132.176V8.488H141.992V12.232H132.176V19H128.408ZM145.775 19V1.72H158.831C159.471 1.72 160.055 1.88 160.583 2.2C161.127 2.52 161.559 2.952 161.879 3.496C162.215 4.024 162.383 4.616 162.383 5.272V8.512C162.383 8.72 162.367 8.92 162.335 9.112C162.319 9.288 162.279 9.456 162.215 9.616C162.455 9.92 162.655 10.272 162.815 10.672C162.975 11.072 163.055 11.472 163.055 11.872V15.448C163.055 16.088 162.887 16.68 162.551 17.224C162.231 17.768 161.799 18.2 161.255 18.52C160.727 18.84 160.135 19 159.479 19H145.775ZM149.495 15.256H159.287V12.088H149.495V15.256ZM149.495 8.344H158.615V5.464H149.495V8.344Z" fill="#414141"/>
<path d="M179.191 19L172.903 1.72H176.863L180.631 12.016L184.398 1.72H187.831L191.623 12.016L195.391 1.72H199.327L193.039 19H190.183L186.103 7.888L182.047 19H179.191ZM203.65 19C203.01 19 202.426 18.84 201.898 18.52C201.37 18.2 200.946 17.776 200.626 17.248C200.322 16.72 200.17 16.144 200.17 15.52V10.192H210.61V8.752H200.17V5.08H210.802C211.442 5.08 212.026 5.24 212.554 5.56C213.082 5.88 213.498 6.304 213.802 6.832C214.122 7.36 214.282 7.936 214.282 8.56V19H203.65ZM203.842 15.328H210.61V13.408H203.842V15.328ZM216.178 19V8.56C216.178 7.936 216.338 7.36 216.658 6.832C216.978 6.304 217.402 5.88 217.93 5.56C218.458 5.24 219.042 5.08 219.682 5.08H227.362V8.752H219.85V19H216.178ZM232.501 19C231.877 19 231.301 18.84 230.773 18.52C230.245 18.2 229.821 17.776 229.501 17.248C229.181 16.72 229.021 16.144 229.021 15.52V8.56C229.021 7.936 229.181 7.36 229.501 6.832C229.821 6.304 230.245 5.88 230.773 5.56C231.301 5.24 231.877 5.08 232.501 5.08H239.653C240.293 5.08 240.877 5.24 241.405 5.56C241.933 5.88 242.349 6.304 242.653 6.832C242.973 7.36 243.133 7.936 243.133 8.56V13.888H232.693V15.328H243.133V19H232.501ZM232.693 10.672H239.461V8.752H232.693V10.672ZM245.476 19V0.519999H249.148V5.08H256.108C256.732 5.08 257.308 5.24 257.836 5.56C258.364 5.88 258.788 6.304 259.108 6.832C259.428 7.36 259.588 7.936 259.588 8.56V19H255.916V8.752H249.148V19H245.476ZM264.915 19C264.291 19 263.715 18.84 263.187 18.52C262.659 18.2 262.235 17.776 261.915 17.248C261.595 16.72 261.435 16.144 261.435 15.52V8.56C261.435 7.936 261.595 7.36 261.915 6.832C262.235 6.304 262.659 5.88 263.187 5.56C263.715 5.24 264.291 5.08 264.915 5.08H272.067C272.707 5.08 273.291 5.24 273.819 5.56C274.347 5.88 274.763 6.304 275.067 6.832C275.387 7.36 275.547 7.936 275.547 8.56V15.52C275.547 16.144 275.387 16.72 275.067 17.248C274.763 17.776 274.347 18.2 273.819 18.52C273.291 18.84 272.707 19 272.067 19H264.915ZM265.107 15.328H271.875V8.752H265.107V15.328ZM280.924 19C280.284 19 279.7 18.84 279.172 18.52C278.644 18.2 278.22 17.776 277.9 17.248C277.596 16.72 277.444 16.144 277.444 15.52V5.08H281.116V15.328H287.884V5.08H291.556V15.52C291.556 16.144 291.396 16.72 291.076 17.248C290.772 17.776 290.356 18.2 289.828 18.52C289.3 18.84 288.716 19 288.076 19H280.924ZM296.952 19C296.328 19 295.752 18.84 295.224 18.52C294.696 18.2 294.272 17.776 293.952 17.248C293.632 16.72 293.472 16.144 293.472 15.52V14.824H297.144V15.328H303.912V13.888H296.952C296.328 13.888 295.752 13.728 295.224 13.408C294.696 13.088 294.272 12.664 293.952 12.136C293.632 11.608 293.472 11.032 293.472 10.408V8.56C293.472 7.936 293.632 7.36 293.952 6.832C294.272 6.304 294.696 5.88 295.224 5.56C295.752 5.24 296.328 5.08 296.952 5.08H304.104C304.744 5.08 305.328 5.24 305.856 5.56C306.384 5.88 306.808 6.304 307.128 6.832C307.448 7.36 307.608 7.936 307.608 8.56V9.256H303.912V8.752H297.144V10.192H304.104C304.744 10.192 305.328 10.352 305.856 10.672C306.384 10.992 306.808 11.416 307.128 11.944C307.448 12.472 307.608 13.048 307.608 13.672V15.52C307.608 16.144 307.448 16.72 307.128 17.248C306.808 17.776 306.384 18.2 305.856 18.52C305.328 18.84 304.744 19 304.104 19H296.952ZM312.985 19C312.361 19 311.785 18.84 311.257 18.52C310.729 18.2 310.305 17.776 309.985 17.248C309.665 16.72 309.505 16.144 309.505 15.52V8.56C309.505 7.936 309.665 7.36 309.985 6.832C310.305 6.304 310.729 5.88 311.257 5.56C311.785 5.24 312.361 5.08 312.985 5.08H320.137C320.777 5.08 321.361 5.24 321.889 5.56C322.417 5.88 322.833 6.304 323.137 6.832C323.457 7.36 323.617 7.936 323.617 8.56V13.888H313.177V15.328H323.617V19H312.985ZM313.177 10.672H319.945V8.752H313.177V10.672Z" fill="#2250AD"/>
</svg>
