<svg width="272" height="40" viewBox="0 0 272 40" fill="none" xmlns="http://www.w3.org/2000/svg">
<path d="M166.38 2H166.956C167.193 2 167.327 2.23825 167.227 2.474L152.8 38.901C152.697 39.2069 152.528 39.375 152.156 39.375H151.581C151.309 39.375 151.176 39.1367 151.275 38.901L165.703 2.474C165.805 2.16928 165.973 2 166.38 2Z" fill="#4A4949"/>
<path d="M4.68945 22.1367C4.20182 22.1367 3.75521 22.0479 3.34961 21.8701C2.94857 21.6878 2.61133 21.4098 2.33789 21.0361H2.25586C2.31055 21.4736 2.33789 21.8883 2.33789 22.2803V25.3633H1.20312V14.5078H2.12598L2.2832 15.5332H2.33789C2.62956 15.123 2.96908 14.8268 3.35645 14.6445C3.74382 14.4622 4.18815 14.3711 4.68945 14.3711C5.68294 14.3711 6.44857 14.7106 6.98633 15.3896C7.52865 16.0687 7.7998 17.0212 7.7998 18.2471C7.7998 19.4775 7.52409 20.4346 6.97266 21.1182C6.42578 21.7972 5.66471 22.1367 4.68945 22.1367ZM4.52539 15.335C3.75977 15.335 3.20605 15.5469 2.86426 15.9707C2.52246 16.3945 2.34701 17.069 2.33789 17.9941V18.2471C2.33789 19.2998 2.51335 20.054 2.86426 20.5098C3.21517 20.9609 3.77799 21.1865 4.55273 21.1865C5.19987 21.1865 5.70573 20.9245 6.07031 20.4004C6.43945 19.8763 6.62402 19.154 6.62402 18.2334C6.62402 17.2992 6.43945 16.5837 6.07031 16.0869C5.70573 15.5856 5.19076 15.335 4.52539 15.335ZM16.2559 18.2471C16.2559 19.4684 15.9482 20.4232 15.333 21.1113C14.7178 21.7949 13.8678 22.1367 12.7832 22.1367C12.1133 22.1367 11.5186 21.9795 10.999 21.665C10.4795 21.3506 10.0785 20.8994 9.7959 20.3115C9.51335 19.7236 9.37207 19.0355 9.37207 18.2471C9.37207 17.0257 9.67741 16.0755 10.2881 15.3965C10.8988 14.7129 11.7464 14.3711 12.8311 14.3711C13.8792 14.3711 14.7109 14.7197 15.3262 15.417C15.946 16.1143 16.2559 17.0576 16.2559 18.2471ZM10.5479 18.2471C10.5479 19.2041 10.7393 19.9333 11.1221 20.4346C11.5049 20.9359 12.0677 21.1865 12.8105 21.1865C13.5534 21.1865 14.1162 20.9382 14.499 20.4414C14.8864 19.9401 15.0801 19.2087 15.0801 18.2471C15.0801 17.2946 14.8864 16.5723 14.499 16.0801C14.1162 15.5833 13.5488 15.335 12.7969 15.335C12.054 15.335 11.4935 15.5788 11.1152 16.0664C10.737 16.554 10.5479 17.2809 10.5479 18.2471ZM24.3701 22L22.9961 17.6045C22.9095 17.3356 22.7477 16.7249 22.5107 15.7725H22.4561C22.2738 16.57 22.1143 17.1852 21.9775 17.6182L20.5625 22H19.25L17.2061 14.5078H18.3955C18.8786 16.39 19.2454 17.8232 19.4961 18.8076C19.7513 19.792 19.8971 20.4551 19.9336 20.7969H19.9883C20.0384 20.5371 20.1182 20.2021 20.2275 19.792C20.3415 19.3773 20.4395 19.0492 20.5215 18.8076L21.8955 14.5078H23.126L24.4658 18.8076C24.721 19.5915 24.8942 20.25 24.9854 20.7832H25.04C25.0583 20.6191 25.1061 20.3662 25.1836 20.0244C25.2656 19.6826 25.7419 17.8438 26.6123 14.5078H27.7881L25.7168 22H24.3701ZM32.3135 22.1367C31.2061 22.1367 30.3311 21.7995 29.6885 21.125C29.0505 20.4505 28.7314 19.514 28.7314 18.3154C28.7314 17.1077 29.0277 16.1484 29.6201 15.4375C30.2171 14.7266 31.0169 14.3711 32.0195 14.3711C32.9583 14.3711 33.7012 14.681 34.248 15.3008C34.7949 15.916 35.0684 16.7295 35.0684 17.7412V18.459H29.9072C29.93 19.3385 30.151 20.0062 30.5703 20.4619C30.9941 20.9176 31.5889 21.1455 32.3545 21.1455C33.1611 21.1455 33.9587 20.9769 34.7471 20.6396V21.6514C34.346 21.8245 33.9655 21.9476 33.6055 22.0205C33.25 22.098 32.8193 22.1367 32.3135 22.1367ZM32.0059 15.3213C31.4043 15.3213 30.9235 15.5173 30.5635 15.9092C30.208 16.3011 29.9984 16.8434 29.9346 17.5361H33.8516C33.8516 16.8206 33.6921 16.2738 33.373 15.8955C33.054 15.5127 32.5983 15.3213 32.0059 15.3213ZM40.4277 14.3711C40.7604 14.3711 41.0589 14.3984 41.3232 14.4531L41.166 15.5059C40.8561 15.4375 40.5827 15.4033 40.3457 15.4033C39.7396 15.4033 39.2201 15.6494 38.7871 16.1416C38.3587 16.6338 38.1445 17.2467 38.1445 17.9805V22H37.0098V14.5078H37.9463L38.0762 15.8955H38.1309C38.4089 15.4079 38.7438 15.0319 39.1357 14.7676C39.5277 14.5033 39.9583 14.3711 40.4277 14.3711ZM45.8896 22.1367C44.7822 22.1367 43.9072 21.7995 43.2646 21.125C42.6266 20.4505 42.3076 19.514 42.3076 18.3154C42.3076 17.1077 42.6038 16.1484 43.1963 15.4375C43.7933 14.7266 44.5931 14.3711 45.5957 14.3711C46.5345 14.3711 47.2773 14.681 47.8242 15.3008C48.3711 15.916 48.6445 16.7295 48.6445 17.7412V18.459H43.4834C43.5062 19.3385 43.7272 20.0062 44.1465 20.4619C44.5703 20.9176 45.165 21.1455 45.9307 21.1455C46.7373 21.1455 47.5348 20.9769 48.3232 20.6396V21.6514C47.9222 21.8245 47.5417 21.9476 47.1816 22.0205C46.8262 22.098 46.3955 22.1367 45.8896 22.1367ZM45.582 15.3213C44.9805 15.3213 44.4997 15.5173 44.1396 15.9092C43.7842 16.3011 43.5745 16.8434 43.5107 17.5361H47.4277C47.4277 16.8206 47.2682 16.2738 46.9492 15.8955C46.6302 15.5127 46.1745 15.3213 45.582 15.3213ZM55.6855 20.9951H55.624C55.0999 21.7562 54.3161 22.1367 53.2725 22.1367C52.2926 22.1367 51.5293 21.8018 50.9824 21.1318C50.4401 20.4619 50.1689 19.5094 50.1689 18.2744C50.1689 17.0394 50.4424 16.0801 50.9893 15.3965C51.5361 14.7129 52.2972 14.3711 53.2725 14.3711C54.2887 14.3711 55.068 14.7402 55.6104 15.4785H55.6992L55.6514 14.9385L55.624 14.4121V11.3633H56.7588V22H55.8359L55.6855 20.9951ZM53.416 21.1865C54.1908 21.1865 54.7513 20.9769 55.0977 20.5576C55.4486 20.1338 55.624 19.4525 55.624 18.5137V18.2744C55.624 17.2126 55.4463 16.4561 55.0908 16.0049C54.7399 15.5492 54.1771 15.3213 53.4023 15.3213C52.737 15.3213 52.2266 15.5811 51.8711 16.1006C51.5202 16.6156 51.3447 17.3447 51.3447 18.2881C51.3447 19.2451 51.5202 19.9674 51.8711 20.4551C52.222 20.9427 52.737 21.1865 53.416 21.1865ZM66.2949 14.3848C67.2793 14.3848 68.0426 14.722 68.585 15.3965C69.1318 16.0664 69.4053 17.0166 69.4053 18.2471C69.4053 19.4775 69.1296 20.4346 68.5781 21.1182C68.0312 21.7972 67.2702 22.1367 66.2949 22.1367C65.8073 22.1367 65.3607 22.0479 64.9551 21.8701C64.554 21.6878 64.2168 21.4098 63.9434 21.0361H63.8613L63.6221 22H62.8086V11.3633H63.9434V13.9473C63.9434 14.526 63.9251 15.0456 63.8887 15.5059H63.9434C64.472 14.7585 65.2559 14.3848 66.2949 14.3848ZM66.1309 15.335C65.3561 15.335 64.7979 15.5583 64.4561 16.0049C64.1143 16.4469 63.9434 17.1943 63.9434 18.2471C63.9434 19.2998 64.1188 20.054 64.4697 20.5098C64.8206 20.9609 65.3835 21.1865 66.1582 21.1865C66.8555 21.1865 67.375 20.9336 67.7168 20.4277C68.0586 19.9173 68.2295 19.1859 68.2295 18.2334C68.2295 17.2581 68.0586 16.5312 67.7168 16.0527C67.375 15.5742 66.8464 15.335 66.1309 15.335ZM70.2051 14.5078H71.4219L73.0625 18.7803C73.4225 19.7555 73.6458 20.4596 73.7324 20.8926H73.7871C73.8464 20.6602 73.9694 20.2637 74.1562 19.7031C74.3477 19.138 74.9674 17.4062 76.0156 14.5078H77.2324L74.0127 23.0391C73.6937 23.8822 73.32 24.4792 72.8916 24.8301C72.4678 25.1855 71.946 25.3633 71.3262 25.3633C70.9798 25.3633 70.638 25.3245 70.3008 25.2471V24.3379C70.5514 24.3926 70.8317 24.4199 71.1416 24.4199C71.9209 24.4199 72.4769 23.9824 72.8096 23.1074L73.2266 22.041L70.2051 14.5078Z" fill="#4A4949"/>
<path d="M111.791 7.30172V11.6955L104.551 21.9691L111.791 24.1361V28.8382L100.464 25.2495V21.1655L107.83 10.4579L100.464 8.35232V3.77295L111.791 7.30172Z" fill="#4D6994"/>
<path d="M113.589 16.4012L115.88 24.6335L117.984 16.4012H122.13V14.0501L125.223 12.998V16.4012H127.885V18.815H125.225V24.632C125.225 25.7469 125.718 26.3036 126.353 26.3036C126.988 26.3036 127.884 26.1181 127.884 26.1181V28.6868C127.884 28.6868 127.342 29.058 125.919 29.074C124.495 29.0887 122.963 28.5787 122.438 27.3089C121.911 26.0406 122.096 24.5546 122.096 24.5546V18.7683H120.534L117.146 29.1193C117.146 29.1193 116.11 31.4076 114.887 32.6627C113.664 33.9164 111.716 34.4585 111.716 34.4585L110.741 31.5347C110.741 31.5347 111.793 31.0861 112.55 30.4666C113.309 29.847 113.835 28.5641 113.835 28.5641L109.967 16.4187L113.589 16.4012Z" fill="#4D6994"/>
<path d="M145.102 16.1003C145.102 16.1003 142.396 15.6459 140.816 16.9434C139.238 18.2439 139.263 20.0762 139.263 21.4921V28.8725H142.604V21.2364C142.604 20.0061 143.038 18.9482 143.826 18.8532C144.615 18.7611 145.102 18.8225 145.102 18.8225V16.1003Z" fill="#4D6994"/>
<path d="M131.025 21.3084C131.025 21.3084 131.187 18.4299 133.323 18.4299C135.458 18.4299 135.48 21.3084 135.48 21.3084H131.025ZM138.312 20.5194C138.15 19.2671 137.453 17.8279 136.085 16.7831C134.716 15.7384 131.269 15.902 129.818 17.502C128.054 19.4527 127.891 21.1009 127.891 23.5835C127.891 25.9521 129.492 27.761 130.793 28.458C132.093 29.1535 133.925 29.269 135.48 28.968C137.036 28.667 137.361 28.458 137.361 28.458V25.8819C137.361 25.8819 136.222 26.6008 134.505 26.6944C132.789 26.7864 131.048 25.5722 131.048 23.7311H138.312C138.312 23.7296 138.475 21.7731 138.312 20.5194Z" fill="#4D6994"/>
<path d="M146.85 16.4441C146.322 16.4441 145.891 16.8737 145.891 17.4012C145.891 17.9302 146.321 18.3583 146.85 18.3583C147.376 18.3583 147.807 17.9302 147.807 17.4012C147.807 16.8737 147.376 16.4441 146.85 16.4441ZM146.85 18.538C146.223 18.538 145.713 18.0281 145.713 17.4012C145.713 16.7758 146.223 16.2659 146.85 16.2659C147.475 16.2659 147.985 16.7758 147.985 17.4012C147.985 18.0281 147.475 18.538 146.85 18.538Z" fill="#4D6994"/>
<path d="M146.711 17.4939V17.8519H146.469V16.908H146.84C146.964 16.908 147.055 16.9284 147.113 16.9708C147.17 17.0132 147.201 17.0775 147.201 17.1695C147.201 17.2323 147.186 17.282 147.154 17.3229C147.125 17.3609 147.08 17.3931 147.018 17.4106C147.052 17.4194 147.081 17.4369 147.107 17.4632C147.134 17.4895 147.16 17.529 147.186 17.586L147.319 17.8533H147.061L146.945 17.6181C146.922 17.5713 146.897 17.5392 146.875 17.5217C146.85 17.5041 146.818 17.4954 146.78 17.4954L146.711 17.4939ZM146.815 17.3288C146.866 17.3288 146.903 17.3171 146.923 17.2981C146.945 17.2806 146.957 17.2499 146.957 17.206C146.957 17.1622 146.945 17.1315 146.923 17.1125C146.901 17.0935 146.865 17.0848 146.815 17.0848H146.711V17.3288H146.815Z" fill="#4D6994"/>
<path d="M89.1484 26.46H96.6677L100.334 25.2983H89.1484V26.46Z" fill="#4D6994"/>
<path d="M95.6982 20.9961L96.3894 21.9751L95.7815 22.1577H100.475V21.1714L100.354 20.9961H95.6982Z" fill="#4D6994"/>
<path d="M89.1484 24.1374V24.3054H100.476V23.1438H92.4712L89.1484 24.1374Z" fill="#4D6994"/>
<path d="M96.7959 4.91999H100.474V3.77295L96.7959 4.91999Z" fill="#4D6994"/>
<path d="M89.8467 7.08691H100.477V5.91357H93.6224L89.8467 7.08691Z" fill="#4D6994"/>
<path d="M89.1484 9.23684H97.3822L100.476 8.35575V8.0752H89.1484V9.23684Z" fill="#4D6994"/>
<path d="M89.6338 12.3845L90.4535 13.5462H95.2345L94.4338 12.3845H89.6338Z" fill="#4D6994"/>
<path d="M99.663 20.003L98.8637 18.8413H94.1719L94.9901 20.003H99.663Z" fill="#4D6994"/>
<path d="M89.1484 28.8442L93.5437 27.4531H89.1484V28.8442Z" fill="#4D6994"/>
<path d="M93.1112 10.4608L93.9163 10.23H89.1484V11.3916H93.7512L93.1112 10.4608Z" fill="#4D6994"/>
<path d="M91.1465 14.532L91.9662 15.6951H96.7107L95.91 14.532H91.1465Z" fill="#4D6994"/>
<path d="M92.6582 16.6868L93.4765 17.8484H98.1844L97.3851 16.6868H92.6582Z" fill="#4D6994"/>
<g clip-path="url(#clip0_2_32188)">
<path d="M269.741 18.7182V17.2959H269.303V17.0842H270.42V17.2959H269.983V18.7182H269.741ZM270.605 18.7182V17.0842H270.912L271.307 18.4094L271.689 17.0842H272V18.7182H271.782V17.4274L271.423 18.7182H271.184L270.812 17.4522V18.7182H270.605Z" fill="#E20074"/>
<path d="M267.108 29.5519C266.801 29.9485 266.408 30.2677 265.961 30.4849C265.514 30.7021 265.025 30.8114 264.53 30.8046C263.209 30.8046 262.277 30.1385 261.736 28.8064C261.346 27.8607 261.146 26.404 261.138 24.4363H269.295C269.239 22.7661 268.934 21.3679 268.379 20.2417C267.35 18.1367 265.81 17.0842 263.757 17.0842C262.378 17.0842 261.198 17.6461 260.217 18.7697C258.975 20.1921 258.354 22.086 258.354 24.4516C258.354 27.0268 258.975 28.9971 260.217 30.3622C261.218 31.4541 262.501 32.0001 264.066 32.0001C266.191 32.0001 267.881 30.7131 269.135 28.1391L268.246 27.6624C267.945 28.3381 267.563 28.9728 267.108 29.5519ZM261.469 20.7813C261.942 19.0347 262.753 18.1609 263.902 18.1596C264.922 18.1596 265.667 18.8701 266.138 20.2912C266.427 21.2874 266.56 22.3241 266.533 23.3629H261.164C261.156 22.493 261.258 21.6258 261.469 20.7832V20.7813Z" fill="#E20074"/>
<path d="M255.802 30.2516C255.554 29.963 255.43 29.2639 255.43 28.1543V11L251.059 11.2097V12.1497H251.395C251.957 12.1497 252.34 12.2737 252.544 12.5215C252.792 12.7999 252.917 13.4914 252.917 14.596V28.1504C252.917 29.2639 252.792 29.963 252.544 30.2478C252.342 30.502 251.959 30.6291 251.395 30.6291H250.914V31.5672H257.425V30.6291H256.944C256.404 30.6253 256.015 30.5014 255.802 30.2516Z" fill="#E20074"/>
<path d="M246.391 14.4014C246.608 14.4052 246.823 14.3635 247.023 14.2788C247.223 14.1942 247.404 14.0685 247.555 13.9095C247.706 13.7544 247.825 13.5702 247.905 13.3675C247.985 13.1648 248.024 12.9478 248.021 12.7292C248.023 12.5098 247.982 12.2922 247.899 12.0899C247.816 11.8876 247.693 11.7048 247.539 11.5528C247.396 11.3957 247.223 11.2708 247.03 11.1861C246.838 11.1014 246.63 11.0588 246.421 11.0609C246.205 11.0563 245.991 11.0962 245.791 11.1781C245.591 11.26 245.409 11.3822 245.257 11.5376C245.096 11.6885 244.968 11.8729 244.882 12.0784C244.796 12.2839 244.754 12.5058 244.759 12.7292C244.756 12.9493 244.798 13.1675 244.881 13.3705C244.964 13.5735 245.087 13.7569 245.242 13.9095C245.389 14.0688 245.568 14.1949 245.766 14.2796C245.964 14.3643 246.177 14.4058 246.391 14.4014Z" fill="#E20074"/>
<path d="M248.241 30.2515C247.993 29.9756 247.869 29.2765 247.869 28.1541V17.3071L243.506 17.5226V18.4759H243.839C244.398 18.4759 244.787 18.596 244.992 18.8325C245.233 19.1108 245.356 19.803 245.356 20.9069V28.1522C245.356 29.2657 245.233 29.9655 244.992 30.2496C244.787 30.5038 244.403 30.6309 243.839 30.6309H243.364V31.569H249.884V30.6309H249.404C248.831 30.6271 248.444 30.5006 248.241 30.2515Z" fill="#E20074"/>
<path d="M237.031 17.2195C236.098 17.2058 235.191 17.5277 234.467 18.129C234.039 18.4994 233.704 18.9704 233.491 19.5018V11L229.236 11.2097V12.1497H229.456C230.019 12.1497 230.402 12.2737 230.607 12.5215C230.85 12.7897 230.971 13.4761 230.971 14.5807V28.5528C230.971 29.8061 230.927 30.6361 230.84 31.0429C230.829 31.102 230.777 31.2774 230.68 31.5634H231.669C231.893 31.1954 232.103 30.8732 232.297 30.5948C232.509 30.2764 232.703 30.1181 232.878 30.1181C233.07 30.1381 233.249 30.2226 233.389 30.3584C233.895 30.7855 234.223 31.0486 234.38 31.1477C235.103 31.6298 235.949 31.8837 236.813 31.878C238.445 31.878 239.76 31.1871 240.76 29.8054C241.829 28.3246 242.364 26.4853 242.364 24.2875C242.364 21.9817 241.767 20.1475 240.572 18.7849C240.129 18.2753 239.582 17.8711 238.971 17.6007C238.359 17.3302 237.697 17.2001 237.031 17.2195ZM236.507 30.8045C236.015 30.8114 235.533 30.6666 235.123 30.3889C234.626 30.0482 234.233 29.572 233.987 29.0142C233.49 27.9312 233.242 26.395 233.242 24.4058C233.242 21.8318 233.766 20.0522 234.814 19.0671C235.304 18.5777 235.958 18.2981 236.643 18.2854C237.566 18.2854 238.261 18.7824 238.728 19.7764C239.224 20.8505 239.473 22.3713 239.473 24.339C239.471 28.6494 238.485 30.8045 236.513 30.8045H236.507Z" fill="#E20074"/>
<path d="M222.482 17.0841C221.606 17.0629 220.738 17.2562 219.95 17.6479C219.162 18.0396 218.476 18.6183 217.951 19.3359C216.941 20.6476 216.437 22.3827 216.437 24.541C216.437 26.6994 216.941 28.4345 217.951 29.7462C219.096 31.2487 220.578 31.9986 222.396 31.9961C224.318 31.9961 225.853 31.2462 226.999 29.7462C228.009 28.423 228.513 26.6778 228.513 24.5105C228.513 22.3751 228.009 20.6502 226.999 19.3359C226.476 18.6194 225.793 18.0412 225.007 17.6495C224.221 17.2578 223.355 17.064 222.482 17.0841ZM222.482 31.0142C221.415 31.0142 220.638 30.5057 220.151 29.4888C219.606 28.3385 219.333 26.6377 219.333 24.3866C219.333 21.6753 219.775 19.8513 220.66 18.9145C220.888 18.6508 221.169 18.439 221.482 18.2926C221.795 18.1462 222.135 18.0683 222.48 18.0641C222.906 18.0619 223.324 18.1807 223.689 18.4073C224.239 18.7666 224.669 19.2886 224.922 19.904C225.379 20.9464 225.607 22.4717 225.607 24.48C225.612 28.8374 224.57 31.0154 222.482 31.0142Z" fill="#E20074"/>
<path d="M205.961 26.1808L201.707 11.2097H195.932V12.184H196.491C196.834 12.1703 197.178 12.2102 197.509 12.3022C197.708 12.3691 197.885 12.4902 198.021 12.6525C198.158 12.8148 198.248 13.0121 198.283 13.2232C198.359 13.6808 198.388 14.1454 198.37 14.6093V26.4058C198.386 27.1871 198.351 27.9686 198.268 28.7453C198.171 29.3516 197.957 29.8054 197.625 30.1028C197.296 30.4128 196.865 30.5832 196.418 30.5795H195.937V31.5634H202.1V30.5795H201.707C200.627 30.5795 199.944 30.0482 199.657 28.9855C199.561 28.6042 199.512 27.7443 199.512 26.4058V13.0592L204.756 31.5634H205.674L210.933 13.0687V27.5822C210.941 28.1461 210.912 28.7098 210.846 29.2696C210.828 29.5878 210.699 29.8887 210.483 30.1181C210.171 30.427 209.642 30.5795 208.893 30.5795H208.64V31.5634H216.116V30.5795H215.708C214.678 30.5795 214.056 30.2687 213.845 29.6414C213.737 29.3021 213.685 28.6176 213.685 27.5822V15.1889C213.678 14.6207 213.707 14.0527 213.77 13.4882C213.792 13.173 213.925 12.8764 214.143 12.6531C214.445 12.3366 214.968 12.1783 215.717 12.1783H216.125V11.2097H210.302L205.961 26.1808Z" fill="#E20074"/>
<path d="M188.221 20.5732H186.28V24.6955H190.306V20.5732H188.221Z" fill="#E20074"/>
<path d="M174.199 11.2097L174 18.3921L175.056 18.5828C175.251 16.4664 175.793 14.8959 176.683 13.8714C177.614 12.7999 178.907 12.2393 180.563 12.1916V27.2104C180.563 28.5241 180.377 29.3745 180.004 29.7692C179.685 30.1048 179.147 30.3088 178.389 30.385C178.165 30.4041 177.782 30.4136 177.24 30.4136V31.5576H187.057V30.4136C186.513 30.4136 186.125 30.4136 185.906 30.385C185.147 30.3088 184.602 30.1048 184.292 29.7692C183.92 29.3745 183.733 28.5241 183.733 27.2104V12.184C185.39 12.2317 186.681 12.7922 187.616 13.8638C188.505 14.8883 189.048 16.4588 189.244 18.5752L190.298 18.3845L190.106 11.2097H174.199Z" fill="#E20074"/>
<path d="M178.028 24.6955V20.5732H176.036H174V24.6955H178.028Z" fill="#E20074"/>
</g>
<defs>
<clipPath id="clip0_2_32188">
<rect width="98" height="21" fill="white" transform="translate(174 11)"/>
</clipPath>
</defs>
</svg>
