<svg width="88" height="17" viewBox="0 0 88 17" fill="none" xmlns="http://www.w3.org/2000/svg">
<path d="M4.21875 13.1562C3.66146 13.1562 3.15104 13.0547 2.6875 12.8516C2.22917 12.6432 1.84375 12.3255 1.53125 11.8984H1.4375C1.5 12.3984 1.53125 12.8724 1.53125 13.3203V16.8438H0.234375V4.4375H1.28906L1.46875 5.60938H1.53125C1.86458 5.14062 2.2526 4.80208 2.69531 4.59375C3.13802 4.38542 3.64583 4.28125 4.21875 4.28125C5.35417 4.28125 6.22917 4.66927 6.84375 5.44531C7.46354 6.22135 7.77344 7.3099 7.77344 8.71094C7.77344 10.1172 7.45833 11.2109 6.82812 11.9922C6.20312 12.7682 5.33333 13.1562 4.21875 13.1562ZM4.03125 5.38281C3.15625 5.38281 2.52344 5.625 2.13281 6.10938C1.74219 6.59375 1.54167 7.36458 1.53125 8.42188V8.71094C1.53125 9.91406 1.73177 10.776 2.13281 11.2969C2.53385 11.8125 3.17708 12.0703 4.0625 12.0703C4.80208 12.0703 5.38021 11.7708 5.79688 11.1719C6.21875 10.5729 6.42969 9.7474 6.42969 8.69531C6.42969 7.6276 6.21875 6.8099 5.79688 6.24219C5.38021 5.66927 4.79167 5.38281 4.03125 5.38281ZM17.4375 8.71094C17.4375 10.1068 17.0859 11.1979 16.3828 11.9844C15.6797 12.7656 14.7083 13.1562 13.4688 13.1562C12.7031 13.1562 12.0234 12.9766 11.4297 12.6172C10.8359 12.2578 10.3776 11.7422 10.0547 11.0703C9.73177 10.3984 9.57031 9.61198 9.57031 8.71094C9.57031 7.3151 9.91927 6.22917 10.6172 5.45312C11.3151 4.67188 12.2839 4.28125 13.5234 4.28125C14.7214 4.28125 15.6719 4.67969 16.375 5.47656C17.0833 6.27344 17.4375 7.35156 17.4375 8.71094ZM10.9141 8.71094C10.9141 9.80469 11.1328 10.638 11.5703 11.2109C12.0078 11.7839 12.651 12.0703 13.5 12.0703C14.349 12.0703 14.9922 11.7865 15.4297 11.2188C15.8724 10.6458 16.0938 9.8099 16.0938 8.71094C16.0938 7.6224 15.8724 6.79688 15.4297 6.23438C14.9922 5.66667 14.3438 5.38281 13.4844 5.38281C12.6354 5.38281 11.9948 5.66146 11.5625 6.21875C11.1302 6.77604 10.9141 7.60677 10.9141 8.71094ZM26.7109 13L25.1406 7.97656C25.0417 7.66927 24.8568 6.97135 24.5859 5.88281H24.5234C24.3151 6.79427 24.1328 7.4974 23.9766 7.99219L22.3594 13H20.8594L18.5234 4.4375H19.8828C20.4349 6.58854 20.8542 8.22656 21.1406 9.35156C21.4323 10.4766 21.599 11.2344 21.6406 11.625H21.7031C21.7604 11.3281 21.8516 10.9453 21.9766 10.4766C22.1068 10.0026 22.2188 9.6276 22.3125 9.35156L23.8828 4.4375H25.2891L26.8203 9.35156C27.112 10.2474 27.3099 11 27.4141 11.6094H27.4766C27.4974 11.4219 27.5521 11.1328 27.6406 10.7422C27.7344 10.3516 28.2786 8.25 29.2734 4.4375H30.6172L28.25 13H26.7109ZM35.7891 13.1562C34.5234 13.1562 33.5234 12.7708 32.7891 12C32.0599 11.2292 31.6953 10.1589 31.6953 8.78906C31.6953 7.40885 32.0339 6.3125 32.7109 5.5C33.3932 4.6875 34.3073 4.28125 35.4531 4.28125C36.526 4.28125 37.375 4.63542 38 5.34375C38.625 6.04688 38.9375 6.97656 38.9375 8.13281V8.95312H33.0391C33.0651 9.95833 33.3177 10.7214 33.7969 11.2422C34.2812 11.763 34.9609 12.0234 35.8359 12.0234C36.7578 12.0234 37.6693 11.8307 38.5703 11.4453V12.6016C38.112 12.7995 37.6771 12.9401 37.2656 13.0234C36.8594 13.112 36.3672 13.1562 35.7891 13.1562ZM35.4375 5.36719C34.75 5.36719 34.2005 5.59115 33.7891 6.03906C33.3828 6.48698 33.1432 7.10677 33.0703 7.89844H37.5469C37.5469 7.08073 37.3646 6.45573 37 6.02344C36.6354 5.58594 36.1146 5.36719 35.4375 5.36719ZM45.0625 4.28125C45.4427 4.28125 45.7839 4.3125 46.0859 4.375L45.9062 5.57812C45.5521 5.5 45.2396 5.46094 44.9688 5.46094C44.276 5.46094 43.6823 5.74219 43.1875 6.30469C42.6979 6.86719 42.4531 7.56771 42.4531 8.40625V13H41.1562V4.4375H42.2266L42.375 6.02344H42.4375C42.7552 5.46615 43.138 5.03646 43.5859 4.73438C44.0339 4.43229 44.526 4.28125 45.0625 4.28125ZM51.3047 13.1562C50.0391 13.1562 49.0391 12.7708 48.3047 12C47.5755 11.2292 47.2109 10.1589 47.2109 8.78906C47.2109 7.40885 47.5495 6.3125 48.2266 5.5C48.9089 4.6875 49.8229 4.28125 50.9688 4.28125C52.0417 4.28125 52.8906 4.63542 53.5156 5.34375C54.1406 6.04688 54.4531 6.97656 54.4531 8.13281V8.95312H48.5547C48.5807 9.95833 48.8333 10.7214 49.3125 11.2422C49.7969 11.763 50.4766 12.0234 51.3516 12.0234C52.2734 12.0234 53.1849 11.8307 54.0859 11.4453V12.6016C53.6276 12.7995 53.1927 12.9401 52.7812 13.0234C52.375 13.112 51.8828 13.1562 51.3047 13.1562ZM50.9531 5.36719C50.2656 5.36719 49.7161 5.59115 49.3047 6.03906C48.8984 6.48698 48.6589 7.10677 48.5859 7.89844H53.0625C53.0625 7.08073 52.8802 6.45573 52.5156 6.02344C52.151 5.58594 51.6302 5.36719 50.9531 5.36719ZM62.5 11.8516H62.4297C61.8307 12.7214 60.9349 13.1562 59.7422 13.1562C58.6224 13.1562 57.75 12.7734 57.125 12.0078C56.5052 11.2422 56.1953 10.1536 56.1953 8.74219C56.1953 7.33073 56.5078 6.23438 57.1328 5.45312C57.7578 4.67188 58.6276 4.28125 59.7422 4.28125C60.9036 4.28125 61.7943 4.70312 62.4141 5.54688H62.5156L62.4609 4.92969L62.4297 4.32812V0.84375H63.7266V13H62.6719L62.5 11.8516ZM59.9062 12.0703C60.7917 12.0703 61.4323 11.8307 61.8281 11.3516C62.2292 10.8672 62.4297 10.0885 62.4297 9.01562V8.74219C62.4297 7.52865 62.2266 6.66406 61.8203 6.14844C61.4193 5.6276 60.776 5.36719 59.8906 5.36719C59.1302 5.36719 58.5469 5.66406 58.1406 6.25781C57.7396 6.84635 57.5391 7.67969 57.5391 8.75781C57.5391 9.85156 57.7396 10.6771 58.1406 11.2344C58.5417 11.7917 59.1302 12.0703 59.9062 12.0703ZM74.625 4.29688C75.75 4.29688 76.6224 4.68229 77.2422 5.45312C77.8672 6.21875 78.1797 7.30469 78.1797 8.71094C78.1797 10.1172 77.8646 11.2109 77.2344 11.9922C76.6094 12.7682 75.7396 13.1562 74.625 13.1562C74.0677 13.1562 73.5573 13.0547 73.0938 12.8516C72.6354 12.6432 72.25 12.3255 71.9375 11.8984H71.8438L71.5703 13H70.6406V0.84375H71.9375V3.79688C71.9375 4.45833 71.9167 5.05208 71.875 5.57812H71.9375C72.5417 4.72396 73.4375 4.29688 74.625 4.29688ZM74.4375 5.38281C73.5521 5.38281 72.9141 5.63802 72.5234 6.14844C72.1328 6.65365 71.9375 7.50781 71.9375 8.71094C71.9375 9.91406 72.138 10.776 72.5391 11.2969C72.9401 11.8125 73.5833 12.0703 74.4688 12.0703C75.2656 12.0703 75.8594 11.7812 76.25 11.2031C76.6406 10.6198 76.8359 9.78385 76.8359 8.69531C76.8359 7.58073 76.6406 6.75 76.25 6.20312C75.8594 5.65625 75.2552 5.38281 74.4375 5.38281ZM79.0938 4.4375H80.4844L82.3594 9.32031C82.7708 10.4349 83.026 11.2396 83.125 11.7344H83.1875C83.2552 11.4688 83.3958 11.0156 83.6094 10.375C83.8281 9.72917 84.5365 7.75 85.7344 4.4375H87.125L83.4453 14.1875C83.0807 15.151 82.6536 15.8333 82.1641 16.2344C81.6797 16.6406 81.0833 16.8438 80.375 16.8438C79.9792 16.8438 79.5885 16.7995 79.2031 16.7109V15.6719C79.4896 15.7344 79.8099 15.7656 80.1641 15.7656C81.0547 15.7656 81.6901 15.2656 82.0703 14.2656L82.5469 13.0469L79.0938 4.4375Z" fill="#4A4949"/>
</svg>
